<mxfile host="app.diagrams.net" agent="Mozilla/5.0 (Windows NT 10.0; Win64; x64) AppleWebKit/537.36 (KHTML, like Gecko) Chrome/131.0.0.0 Safari/537.36" version="25.0.1">
  <diagram name="Page-1" id="h3CojvDLJAW0fWPxnBGz">
    <mxGraphModel dx="2269" dy="1274" grid="1" gridSize="10" guides="1" tooltips="1" connect="1" arrows="1" fold="1" page="1" pageScale="1" pageWidth="827" pageHeight="1169" math="0" shadow="0">
      <root>
        <mxCell id="0" />
        <mxCell id="1" parent="0" />
        <mxCell id="bAH0Vt12tApCW_PCfB48-3" style="edgeStyle=orthogonalEdgeStyle;rounded=0;orthogonalLoop=1;jettySize=auto;html=1;exitX=1;exitY=0.5;exitDx=0;exitDy=0;" parent="1" source="bAH0Vt12tApCW_PCfB48-1" target="bAH0Vt12tApCW_PCfB48-2" edge="1">
          <mxGeometry relative="1" as="geometry" />
        </mxCell>
        <mxCell id="bAH0Vt12tApCW_PCfB48-1" value="User Input Data" style="rounded=0;whiteSpace=wrap;html=1;" parent="1" vertex="1">
          <mxGeometry x="10" y="180" width="120" height="60" as="geometry" />
        </mxCell>
        <mxCell id="bAH0Vt12tApCW_PCfB48-5" style="edgeStyle=orthogonalEdgeStyle;rounded=0;orthogonalLoop=1;jettySize=auto;html=1;exitX=1;exitY=0.5;exitDx=0;exitDy=0;exitPerimeter=0;entryX=0;entryY=0.5;entryDx=0;entryDy=0;" parent="1" source="bAH0Vt12tApCW_PCfB48-2" target="bAH0Vt12tApCW_PCfB48-4" edge="1">
          <mxGeometry relative="1" as="geometry" />
        </mxCell>
        <mxCell id="bAH0Vt12tApCW_PCfB48-2" value="Calculate User Detials" style="shape=cylinder3;whiteSpace=wrap;html=1;boundedLbl=1;backgroundOutline=1;size=15;" parent="1" vertex="1">
          <mxGeometry x="180" y="160" width="90" height="100" as="geometry" />
        </mxCell>
        <mxCell id="bAH0Vt12tApCW_PCfB48-76" style="edgeStyle=orthogonalEdgeStyle;rounded=0;orthogonalLoop=1;jettySize=auto;html=1;exitX=1;exitY=0.5;exitDx=0;exitDy=0;entryX=0;entryY=0.25;entryDx=0;entryDy=0;" parent="1" source="bAH0Vt12tApCW_PCfB48-4" target="bAH0Vt12tApCW_PCfB48-13" edge="1">
          <mxGeometry relative="1" as="geometry">
            <Array as="points">
              <mxPoint x="450" y="207" />
              <mxPoint x="475" y="207" />
            </Array>
          </mxGeometry>
        </mxCell>
        <mxCell id="bAH0Vt12tApCW_PCfB48-4" value="BMR / TDEE" style="rounded=0;whiteSpace=wrap;html=1;" parent="1" vertex="1">
          <mxGeometry x="330" y="180" width="120" height="60" as="geometry" />
        </mxCell>
        <mxCell id="bAH0Vt12tApCW_PCfB48-13" value="&lt;font style=&quot;font-size: 18px;&quot;&gt;Classifier&lt;/font&gt;" style="swimlane;whiteSpace=wrap;html=1;" parent="1" vertex="1">
          <mxGeometry x="500" y="100" width="310" height="430" as="geometry">
            <mxRectangle x="500" y="100" width="110" height="40" as="alternateBounds" />
          </mxGeometry>
        </mxCell>
        <mxCell id="bAH0Vt12tApCW_PCfB48-14" value="&lt;font style=&quot;font-size: 14px;&quot;&gt;&lt;b&gt;Dataset&lt;/b&gt;&lt;/font&gt;" style="shape=cylinder3;whiteSpace=wrap;html=1;boundedLbl=1;backgroundOutline=1;size=15;" parent="bAH0Vt12tApCW_PCfB48-13" vertex="1">
          <mxGeometry x="125" y="40" width="60" height="80" as="geometry" />
        </mxCell>
        <mxCell id="bAH0Vt12tApCW_PCfB48-25" style="edgeStyle=orthogonalEdgeStyle;rounded=0;orthogonalLoop=1;jettySize=auto;html=1;exitX=0.5;exitY=1;exitDx=0;exitDy=0;exitPerimeter=0;entryX=0;entryY=0.5;entryDx=0;entryDy=0;" parent="bAH0Vt12tApCW_PCfB48-13" source="bAH0Vt12tApCW_PCfB48-15" target="bAH0Vt12tApCW_PCfB48-17" edge="1">
          <mxGeometry relative="1" as="geometry" />
        </mxCell>
        <mxCell id="bAH0Vt12tApCW_PCfB48-15" value="Train Data" style="shape=cylinder3;whiteSpace=wrap;html=1;boundedLbl=1;backgroundOutline=1;size=15;" parent="bAH0Vt12tApCW_PCfB48-13" vertex="1">
          <mxGeometry x="20" y="140" width="60" height="80" as="geometry" />
        </mxCell>
        <mxCell id="bAH0Vt12tApCW_PCfB48-24" style="edgeStyle=orthogonalEdgeStyle;rounded=0;orthogonalLoop=1;jettySize=auto;html=1;exitX=0.5;exitY=1;exitDx=0;exitDy=0;exitPerimeter=0;entryX=1;entryY=0.5;entryDx=0;entryDy=0;" parent="bAH0Vt12tApCW_PCfB48-13" source="bAH0Vt12tApCW_PCfB48-16" target="bAH0Vt12tApCW_PCfB48-17" edge="1">
          <mxGeometry relative="1" as="geometry" />
        </mxCell>
        <mxCell id="bAH0Vt12tApCW_PCfB48-16" value="Test Data" style="shape=cylinder3;whiteSpace=wrap;html=1;boundedLbl=1;backgroundOutline=1;size=15;" parent="bAH0Vt12tApCW_PCfB48-13" vertex="1">
          <mxGeometry x="223" y="140" width="60" height="80" as="geometry" />
        </mxCell>
        <mxCell id="bAH0Vt12tApCW_PCfB48-26" style="edgeStyle=orthogonalEdgeStyle;rounded=0;orthogonalLoop=1;jettySize=auto;html=1;exitX=-0.004;exitY=0.837;exitDx=0;exitDy=0;entryX=0.5;entryY=0;entryDx=0;entryDy=0;exitPerimeter=0;" parent="bAH0Vt12tApCW_PCfB48-13" source="bAH0Vt12tApCW_PCfB48-17" target="bAH0Vt12tApCW_PCfB48-18" edge="1">
          <mxGeometry relative="1" as="geometry">
            <Array as="points">
              <mxPoint x="95" y="300" />
              <mxPoint x="40" y="300" />
            </Array>
          </mxGeometry>
        </mxCell>
        <mxCell id="bAH0Vt12tApCW_PCfB48-27" style="edgeStyle=orthogonalEdgeStyle;rounded=0;orthogonalLoop=1;jettySize=auto;html=1;exitX=0.25;exitY=1;exitDx=0;exitDy=0;entryX=0.5;entryY=0;entryDx=0;entryDy=0;" parent="bAH0Vt12tApCW_PCfB48-13" source="bAH0Vt12tApCW_PCfB48-17" target="bAH0Vt12tApCW_PCfB48-19" edge="1">
          <mxGeometry relative="1" as="geometry">
            <Array as="points">
              <mxPoint x="116" y="300" />
            </Array>
          </mxGeometry>
        </mxCell>
        <mxCell id="bAH0Vt12tApCW_PCfB48-28" style="edgeStyle=orthogonalEdgeStyle;rounded=0;orthogonalLoop=1;jettySize=auto;html=1;exitX=0.75;exitY=1;exitDx=0;exitDy=0;entryX=0.5;entryY=0;entryDx=0;entryDy=0;" parent="bAH0Vt12tApCW_PCfB48-13" source="bAH0Vt12tApCW_PCfB48-17" target="bAH0Vt12tApCW_PCfB48-20" edge="1">
          <mxGeometry relative="1" as="geometry">
            <Array as="points">
              <mxPoint x="193" y="300" />
            </Array>
          </mxGeometry>
        </mxCell>
        <mxCell id="bAH0Vt12tApCW_PCfB48-29" style="edgeStyle=orthogonalEdgeStyle;rounded=0;orthogonalLoop=1;jettySize=auto;html=1;exitX=1;exitY=0.75;exitDx=0;exitDy=0;" parent="bAH0Vt12tApCW_PCfB48-13" source="bAH0Vt12tApCW_PCfB48-17" target="bAH0Vt12tApCW_PCfB48-21" edge="1">
          <mxGeometry relative="1" as="geometry">
            <Array as="points">
              <mxPoint x="215" y="300" />
              <mxPoint x="270" y="300" />
            </Array>
          </mxGeometry>
        </mxCell>
        <mxCell id="bAH0Vt12tApCW_PCfB48-17" value="&lt;font style=&quot;font-size: 36px;&quot;&gt;&lt;b style=&quot;&quot;&gt;MLPs&lt;/b&gt;&lt;/font&gt;" style="rounded=1;whiteSpace=wrap;html=1;" parent="bAH0Vt12tApCW_PCfB48-13" vertex="1">
          <mxGeometry x="95" y="240" width="120" height="60" as="geometry" />
        </mxCell>
        <mxCell id="bAH0Vt12tApCW_PCfB48-18" value="Breakfast" style="whiteSpace=wrap;html=1;aspect=fixed;" parent="bAH0Vt12tApCW_PCfB48-13" vertex="1">
          <mxGeometry x="10" y="340" width="60" height="60" as="geometry" />
        </mxCell>
        <mxCell id="bAH0Vt12tApCW_PCfB48-20" value="Snack" style="whiteSpace=wrap;html=1;aspect=fixed;" parent="bAH0Vt12tApCW_PCfB48-13" vertex="1">
          <mxGeometry x="163" y="340" width="60" height="60" as="geometry" />
        </mxCell>
        <mxCell id="bAH0Vt12tApCW_PCfB48-19" value="Lunch" style="whiteSpace=wrap;html=1;aspect=fixed;" parent="bAH0Vt12tApCW_PCfB48-13" vertex="1">
          <mxGeometry x="86" y="340" width="60" height="60" as="geometry" />
        </mxCell>
        <mxCell id="bAH0Vt12tApCW_PCfB48-21" value="Dinner" style="whiteSpace=wrap;html=1;aspect=fixed;" parent="bAH0Vt12tApCW_PCfB48-13" vertex="1">
          <mxGeometry x="240" y="340" width="60" height="60" as="geometry" />
        </mxCell>
        <mxCell id="bAH0Vt12tApCW_PCfB48-22" style="edgeStyle=orthogonalEdgeStyle;rounded=0;orthogonalLoop=1;jettySize=auto;html=1;exitX=0;exitY=1;exitDx=0;exitDy=-15;exitPerimeter=0;entryX=0.5;entryY=0;entryDx=0;entryDy=0;entryPerimeter=0;" parent="bAH0Vt12tApCW_PCfB48-13" source="bAH0Vt12tApCW_PCfB48-14" target="bAH0Vt12tApCW_PCfB48-15" edge="1">
          <mxGeometry relative="1" as="geometry" />
        </mxCell>
        <mxCell id="bAH0Vt12tApCW_PCfB48-23" style="edgeStyle=orthogonalEdgeStyle;rounded=0;orthogonalLoop=1;jettySize=auto;html=1;exitX=1;exitY=1;exitDx=0;exitDy=-15;exitPerimeter=0;entryX=0.5;entryY=0;entryDx=0;entryDy=0;entryPerimeter=0;" parent="bAH0Vt12tApCW_PCfB48-13" source="bAH0Vt12tApCW_PCfB48-14" target="bAH0Vt12tApCW_PCfB48-16" edge="1">
          <mxGeometry relative="1" as="geometry" />
        </mxCell>
        <mxCell id="bAH0Vt12tApCW_PCfB48-51" style="edgeStyle=orthogonalEdgeStyle;rounded=0;orthogonalLoop=1;jettySize=auto;html=1;exitX=0;exitY=0.5;exitDx=0;exitDy=0;exitPerimeter=0;entryX=1;entryY=0.25;entryDx=0;entryDy=0;" parent="1" target="bAH0Vt12tApCW_PCfB48-45" edge="1">
          <mxGeometry relative="1" as="geometry">
            <mxPoint x="572.5" y="632" as="sourcePoint" />
          </mxGeometry>
        </mxCell>
        <mxCell id="bAH0Vt12tApCW_PCfB48-52" style="edgeStyle=orthogonalEdgeStyle;rounded=0;orthogonalLoop=1;jettySize=auto;html=1;exitX=0;exitY=0.5;exitDx=0;exitDy=0;exitPerimeter=0;entryX=1;entryY=0.5;entryDx=0;entryDy=0;" parent="1" target="bAH0Vt12tApCW_PCfB48-46" edge="1">
          <mxGeometry relative="1" as="geometry">
            <mxPoint x="572.5" y="632" as="sourcePoint" />
          </mxGeometry>
        </mxCell>
        <mxCell id="bAH0Vt12tApCW_PCfB48-53" style="edgeStyle=orthogonalEdgeStyle;rounded=0;orthogonalLoop=1;jettySize=auto;html=1;exitX=0;exitY=0.5;exitDx=0;exitDy=0;exitPerimeter=0;entryX=1;entryY=0.5;entryDx=0;entryDy=0;" parent="1" target="bAH0Vt12tApCW_PCfB48-47" edge="1">
          <mxGeometry relative="1" as="geometry">
            <mxPoint x="572.5" y="632" as="sourcePoint" />
          </mxGeometry>
        </mxCell>
        <mxCell id="bAH0Vt12tApCW_PCfB48-54" style="edgeStyle=orthogonalEdgeStyle;rounded=0;orthogonalLoop=1;jettySize=auto;html=1;exitX=0;exitY=0.5;exitDx=0;exitDy=0;exitPerimeter=0;entryX=1;entryY=0.5;entryDx=0;entryDy=0;" parent="1" target="bAH0Vt12tApCW_PCfB48-48" edge="1">
          <mxGeometry relative="1" as="geometry">
            <mxPoint x="572.5" y="632" as="sourcePoint" />
          </mxGeometry>
        </mxCell>
        <mxCell id="bAH0Vt12tApCW_PCfB48-37" value="&lt;div&gt;&lt;br&gt;&lt;/div&gt;&lt;div&gt;&lt;br&gt;&lt;/div&gt;&lt;div&gt;&lt;br&gt;&lt;/div&gt;&lt;div&gt;&lt;br&gt;&lt;/div&gt;Regressor To Match Serving size with Actual TDEE" style="shape=cylinder3;whiteSpace=wrap;html=1;boundedLbl=1;backgroundOutline=1;size=15;" parent="1" vertex="1">
          <mxGeometry x="572.5" y="585" width="165" height="180" as="geometry" />
        </mxCell>
        <mxCell id="bAH0Vt12tApCW_PCfB48-39" style="edgeStyle=orthogonalEdgeStyle;rounded=0;orthogonalLoop=1;jettySize=auto;html=1;exitX=0.5;exitY=1;exitDx=0;exitDy=0;entryX=0;entryY=0;entryDx=0;entryDy=15;entryPerimeter=0;" parent="1" source="bAH0Vt12tApCW_PCfB48-18" target="bAH0Vt12tApCW_PCfB48-37" edge="1">
          <mxGeometry relative="1" as="geometry" />
        </mxCell>
        <mxCell id="bAH0Vt12tApCW_PCfB48-40" style="edgeStyle=orthogonalEdgeStyle;rounded=0;orthogonalLoop=1;jettySize=auto;html=1;exitX=0.5;exitY=1;exitDx=0;exitDy=0;entryX=0.27;entryY=0.014;entryDx=0;entryDy=0;entryPerimeter=0;" parent="1" source="bAH0Vt12tApCW_PCfB48-19" target="bAH0Vt12tApCW_PCfB48-37" edge="1">
          <mxGeometry relative="1" as="geometry">
            <Array as="points">
              <mxPoint x="617" y="500" />
            </Array>
          </mxGeometry>
        </mxCell>
        <mxCell id="bAH0Vt12tApCW_PCfB48-41" style="edgeStyle=orthogonalEdgeStyle;rounded=0;orthogonalLoop=1;jettySize=auto;html=1;exitX=0.5;exitY=1;exitDx=0;exitDy=0;entryX=0.721;entryY=0.02;entryDx=0;entryDy=0;entryPerimeter=0;" parent="1" source="bAH0Vt12tApCW_PCfB48-20" target="bAH0Vt12tApCW_PCfB48-37" edge="1">
          <mxGeometry relative="1" as="geometry">
            <Array as="points">
              <mxPoint x="691" y="500" />
              <mxPoint x="691" y="542" />
              <mxPoint x="691" y="542" />
            </Array>
          </mxGeometry>
        </mxCell>
        <mxCell id="bAH0Vt12tApCW_PCfB48-42" style="edgeStyle=orthogonalEdgeStyle;rounded=0;orthogonalLoop=1;jettySize=auto;html=1;exitX=0.5;exitY=1;exitDx=0;exitDy=0;entryX=1;entryY=0;entryDx=0;entryDy=15;entryPerimeter=0;" parent="1" source="bAH0Vt12tApCW_PCfB48-21" target="bAH0Vt12tApCW_PCfB48-37" edge="1">
          <mxGeometry relative="1" as="geometry" />
        </mxCell>
        <mxCell id="bAH0Vt12tApCW_PCfB48-45" value="&lt;font style=&quot;font-size: 14px;&quot;&gt;Breakfast&lt;/font&gt;" style="whiteSpace=wrap;html=1;aspect=fixed;" parent="1" vertex="1">
          <mxGeometry x="290" y="397" width="80" height="80" as="geometry" />
        </mxCell>
        <mxCell id="bAH0Vt12tApCW_PCfB48-46" value="&lt;font style=&quot;font-size: 14px;&quot;&gt;Lunch&lt;/font&gt;" style="whiteSpace=wrap;html=1;aspect=fixed;" parent="1" vertex="1">
          <mxGeometry x="290" y="527" width="80" height="80" as="geometry" />
        </mxCell>
        <mxCell id="bAH0Vt12tApCW_PCfB48-47" value="&lt;font style=&quot;font-size: 14px;&quot;&gt;Snacks&lt;/font&gt;" style="whiteSpace=wrap;html=1;aspect=fixed;" parent="1" vertex="1">
          <mxGeometry x="290" y="657" width="80" height="80" as="geometry" />
        </mxCell>
        <mxCell id="bAH0Vt12tApCW_PCfB48-48" value="&lt;font style=&quot;font-size: 14px;&quot;&gt;Dinner&lt;/font&gt;" style="whiteSpace=wrap;html=1;aspect=fixed;" parent="1" vertex="1">
          <mxGeometry x="290" y="787" width="80" height="80" as="geometry" />
        </mxCell>
        <mxCell id="bAH0Vt12tApCW_PCfB48-70" style="edgeStyle=orthogonalEdgeStyle;rounded=0;orthogonalLoop=1;jettySize=auto;html=1;exitX=0.5;exitY=1;exitDx=0;exitDy=0;exitPerimeter=0;entryX=0.5;entryY=0;entryDx=0;entryDy=0;" parent="1" source="bAH0Vt12tApCW_PCfB48-58" target="bAH0Vt12tApCW_PCfB48-69" edge="1">
          <mxGeometry relative="1" as="geometry">
            <Array as="points">
              <mxPoint x="143" y="890" />
              <mxPoint x="620" y="890" />
            </Array>
          </mxGeometry>
        </mxCell>
        <mxCell id="bAH0Vt12tApCW_PCfB48-71" style="edgeStyle=orthogonalEdgeStyle;rounded=0;orthogonalLoop=1;jettySize=auto;html=1;exitX=0.5;exitY=1;exitDx=0;exitDy=0;exitPerimeter=0;" parent="1" source="bAH0Vt12tApCW_PCfB48-58" target="bAH0Vt12tApCW_PCfB48-68" edge="1">
          <mxGeometry relative="1" as="geometry">
            <Array as="points">
              <mxPoint x="143" y="890" />
              <mxPoint x="440" y="890" />
            </Array>
          </mxGeometry>
        </mxCell>
        <mxCell id="bAH0Vt12tApCW_PCfB48-72" style="edgeStyle=orthogonalEdgeStyle;rounded=0;orthogonalLoop=1;jettySize=auto;html=1;exitX=0.5;exitY=1;exitDx=0;exitDy=0;exitPerimeter=0;entryX=0.459;entryY=-0.001;entryDx=0;entryDy=0;entryPerimeter=0;" parent="1" source="bAH0Vt12tApCW_PCfB48-58" target="bAH0Vt12tApCW_PCfB48-67" edge="1">
          <mxGeometry relative="1" as="geometry">
            <Array as="points">
              <mxPoint x="143" y="890" />
              <mxPoint x="297" y="890" />
            </Array>
          </mxGeometry>
        </mxCell>
        <mxCell id="bAH0Vt12tApCW_PCfB48-73" style="edgeStyle=orthogonalEdgeStyle;rounded=0;orthogonalLoop=1;jettySize=auto;html=1;exitX=0.5;exitY=1;exitDx=0;exitDy=0;exitPerimeter=0;entryX=0.5;entryY=0;entryDx=0;entryDy=0;" parent="1" source="bAH0Vt12tApCW_PCfB48-58" target="bAH0Vt12tApCW_PCfB48-66" edge="1">
          <mxGeometry relative="1" as="geometry" />
        </mxCell>
        <mxCell id="bAH0Vt12tApCW_PCfB48-58" value="&lt;div&gt;&lt;br&gt;&lt;/div&gt;&lt;div&gt;&lt;br&gt;&lt;/div&gt;&lt;div&gt;&lt;br&gt;&lt;/div&gt;A Reinforcement Learning Model to Give Alternative Of Selected Items on basis of user&#39;s feed back" style="shape=cylinder3;whiteSpace=wrap;html=1;boundedLbl=1;backgroundOutline=1;size=15;" parent="1" vertex="1">
          <mxGeometry x="60" y="585" width="165" height="180" as="geometry" />
        </mxCell>
        <mxCell id="bAH0Vt12tApCW_PCfB48-59" style="edgeStyle=orthogonalEdgeStyle;rounded=0;orthogonalLoop=1;jettySize=auto;html=1;exitX=0;exitY=0.5;exitDx=0;exitDy=0;" parent="1" edge="1">
          <mxGeometry relative="1" as="geometry">
            <mxPoint x="290.0000000000001" y="441" as="sourcePoint" />
            <mxPoint x="70" y="594" as="targetPoint" />
            <Array as="points">
              <mxPoint x="70" y="441" />
            </Array>
          </mxGeometry>
        </mxCell>
        <mxCell id="bAH0Vt12tApCW_PCfB48-61" style="edgeStyle=orthogonalEdgeStyle;rounded=0;orthogonalLoop=1;jettySize=auto;html=1;exitX=0.5;exitY=0;exitDx=0;exitDy=0;" parent="1" source="bAH0Vt12tApCW_PCfB48-46" edge="1">
          <mxGeometry relative="1" as="geometry">
            <mxPoint x="90" y="590" as="targetPoint" />
            <Array as="points">
              <mxPoint x="330" y="507" />
              <mxPoint x="90" y="507" />
              <mxPoint x="90" y="589" />
            </Array>
          </mxGeometry>
        </mxCell>
        <mxCell id="bAH0Vt12tApCW_PCfB48-62" style="edgeStyle=orthogonalEdgeStyle;rounded=0;orthogonalLoop=1;jettySize=auto;html=1;exitX=1;exitY=0.25;exitDx=0;exitDy=0;" parent="1" edge="1">
          <mxGeometry relative="1" as="geometry">
            <mxPoint x="371" y="677" as="sourcePoint" />
            <mxPoint x="141" y="585" as="targetPoint" />
            <Array as="points">
              <mxPoint x="384" y="677" />
              <mxPoint x="384" y="490" />
              <mxPoint x="141" y="490" />
              <mxPoint x="141" y="585" />
            </Array>
          </mxGeometry>
        </mxCell>
        <mxCell id="bAH0Vt12tApCW_PCfB48-63" style="edgeStyle=orthogonalEdgeStyle;rounded=0;orthogonalLoop=1;jettySize=auto;html=1;exitX=1;exitY=0.25;exitDx=0;exitDy=0;entryX=0.855;entryY=0;entryDx=0;entryDy=4.35;entryPerimeter=0;" parent="1" source="bAH0Vt12tApCW_PCfB48-48" target="bAH0Vt12tApCW_PCfB48-58" edge="1">
          <mxGeometry relative="1" as="geometry">
            <Array as="points">
              <mxPoint x="430" y="807" />
              <mxPoint x="430" y="360" />
              <mxPoint x="201" y="360" />
            </Array>
          </mxGeometry>
        </mxCell>
        <mxCell id="bAH0Vt12tApCW_PCfB48-64" value="&lt;font style=&quot;font-size: 24px;&quot;&gt;&lt;b&gt;DQN&lt;/b&gt;&lt;/font&gt;" style="rounded=1;whiteSpace=wrap;html=1;" parent="1" vertex="1">
          <mxGeometry x="107.5" y="627" width="70" height="30" as="geometry" />
        </mxCell>
        <mxCell id="bAH0Vt12tApCW_PCfB48-66" value="&lt;font style=&quot;font-size: 14px;&quot;&gt;Final Break fast&lt;/font&gt;" style="whiteSpace=wrap;html=1;aspect=fixed;" parent="1" vertex="1">
          <mxGeometry x="82" y="950" width="121" height="121" as="geometry" />
        </mxCell>
        <mxCell id="bAH0Vt12tApCW_PCfB48-67" value="&lt;font style=&quot;font-size: 14px;&quot;&gt;Final Lunch&lt;/font&gt;" style="whiteSpace=wrap;html=1;aspect=fixed;" parent="1" vertex="1">
          <mxGeometry x="242" y="950" width="120" height="120" as="geometry" />
        </mxCell>
        <mxCell id="bAH0Vt12tApCW_PCfB48-68" value="&lt;font style=&quot;font-size: 14px;&quot;&gt;Final Snacks&lt;/font&gt;" style="whiteSpace=wrap;html=1;aspect=fixed;" parent="1" vertex="1">
          <mxGeometry x="400" y="950" width="120" height="120" as="geometry" />
        </mxCell>
        <mxCell id="bAH0Vt12tApCW_PCfB48-69" value="&lt;font style=&quot;font-size: 14px;&quot;&gt;Final Dinner&lt;/font&gt;" style="whiteSpace=wrap;html=1;aspect=fixed;" parent="1" vertex="1">
          <mxGeometry x="560" y="950" width="120" height="120" as="geometry" />
        </mxCell>
        <mxCell id="bAH0Vt12tApCW_PCfB48-75" value="&lt;font style=&quot;font-size: 14px;&quot;&gt;&lt;b style=&quot;&quot;&gt;Linear Regression&lt;/b&gt;&lt;/font&gt;" style="rounded=1;whiteSpace=wrap;html=1;" parent="1" vertex="1">
          <mxGeometry x="594" y="629" width="127" height="35" as="geometry" />
        </mxCell>
      </root>
    </mxGraphModel>
  </diagram>
</mxfile>
